<svg width="56" height="72" viewBox="0 0 56 72" fill="none" xmlns="http://www.w3.org/2000/svg">
<path d="M10.181 0.358994C4.75401 0.358994 0.363007 4.84899 0.363007 10.35V61.65C0.363007 67.15 4.75501 71.64 10.181 71.64H45.818C51.246 71.64 55.636 67.15 55.636 61.65V18.124C55.636 18.04 55.636 17.928 55.636 17.844C55.636 17.816 55.636 17.816 55.636 17.816C55.609 17.788 55.609 17.788 55.609 17.76V17.732C55.582 17.704 55.582 17.648 55.552 17.62C55.525 17.592 55.525 17.564 55.497 17.536C55.468 17.508 55.468 17.48 55.44 17.452L40.393 0.639994C40.364 0.611994 40.336 0.611993 40.336 0.583993C40.279 0.527993 40.197 0.471994 40.141 0.443994C40.057 0.387994 40 0.359993 39.916 0.359993C39.861 0.359993 39.832 0.359993 39.777 0.359993H39.664H10.181V0.358994ZM10.181 1.93099H38.994V8.77899C38.994 14.279 43.385 18.769 48.812 18.769H54.042V61.65C54.042 66.308 50.378 70.069 45.817 70.069H10.181C5.59401 70.069 1.92901 66.308 1.92901 61.65V10.35C1.92901 5.69099 5.59401 1.93099 10.181 1.93099ZM40.588 3.19399L44.588 7.73999L53.065 17.198H48.813C44.252 17.198 40.588 13.437 40.588 8.77899V3.19399ZM25.174 17.142C25.147 17.142 25.119 17.142 25.09 17.17C25.035 17.17 25.006 17.198 24.951 17.226C24 17.563 23.385 18.405 23.076 19.387C22.797 20.397 22.768 21.548 22.936 22.866C23.244 25.167 24.138 27.918 25.538 30.696C24.978 32.8 24.223 35.018 23.385 37.178C22.434 39.648 21.315 42.033 20.167 44.222C17.063 45.597 14.209 47.084 12.111 48.656C11.943 48.768 10.851 49.442 10.068 50.425C9.70501 50.93 9.36901 51.491 9.31301 52.221C9.28501 52.754 9.45301 53.316 9.78901 53.849C9.84601 54.074 10.014 54.27 10.236 54.354C10.32 54.466 10.461 54.522 10.6 54.55C11.775 55.083 13.118 54.859 14.292 54.186C15.606 53.456 16.894 52.165 18.124 50.538C19.243 49.078 20.334 47.339 21.369 45.431C23.27 44.617 25.313 43.831 27.355 43.158C29.621 42.4 31.914 41.726 34.041 41.221C36.754 43.298 39.859 44.757 43.299 44.982C43.412 44.982 43.551 44.982 43.692 44.925C44.782 44.813 45.678 44.392 46.237 43.662C46.825 42.904 46.825 41.81 46.264 40.94C45.453 39.621 43.662 38.723 40.782 38.638C39.831 38.638 38.768 38.695 37.565 38.863C36.559 39.032 35.495 39.257 34.405 39.48C31.635 37.208 29.259 34.176 27.552 31.062C27.439 30.894 27.356 30.697 27.243 30.5C27.858 28.199 28.306 26.038 28.474 24.158C28.669 22.222 28.641 20.622 28.222 19.331C27.998 18.713 27.662 18.152 27.187 17.731C26.711 17.338 26.068 17.142 25.424 17.142C25.397 17.142 25.397 17.142 25.368 17.142C25.368 17.142 25.368 17.142 25.34 17.142H25.313C25.285 17.142 25.285 17.142 25.285 17.142C25.258 17.142 25.203 17.142 25.174 17.142ZM25.426 18.713C25.426 18.713 25.454 18.741 25.454 18.713C25.789 18.713 25.985 18.797 26.182 18.938C26.35 19.106 26.574 19.387 26.713 19.836C27.021 20.734 27.076 22.193 26.908 23.989C26.769 25.28 26.517 26.739 26.181 28.283C25.285 26.234 24.726 24.27 24.502 22.67C24.362 21.491 24.39 20.509 24.586 19.836C24.784 19.218 25.036 18.881 25.426 18.713ZM26.629 32.661C28.195 35.271 30.181 37.853 32.504 39.957C30.686 40.435 28.755 40.995 26.853 41.641C25.371 42.146 23.916 42.707 22.461 43.269C23.328 41.529 24.139 39.677 24.867 37.796C25.539 36.084 26.125 34.344 26.629 32.661ZM40.756 40.237C43.274 40.322 44.561 41.135 44.951 41.753C45.203 42.174 45.148 42.455 44.951 42.735C44.728 43.015 44.224 43.324 43.301 43.352C43.246 43.352 43.19 43.352 43.133 43.38C40.645 43.155 38.266 42.201 36.112 40.742C36.7 40.63 37.26 40.517 37.819 40.433C38.938 40.266 39.916 40.21 40.756 40.237ZM18.881 46.552C18.237 47.647 17.537 48.685 16.866 49.555C15.691 51.099 14.545 52.221 13.537 52.81C12.614 53.343 11.887 53.428 11.187 53.091C10.908 52.782 10.88 52.558 10.908 52.333C10.908 52.08 11.076 51.771 11.328 51.407C11.859 50.733 12.698 50.172 13.034 49.92C14.573 48.769 16.616 47.618 18.881 46.552Z" fill="black"/>
</svg>
